Coordinates
version=1
nRows=11
nColumns=63
inDegrees=yes

Units are S.I. units (second, meters, Newtons, ...)
If the header above contains a line with 'inDegrees', this indicates whether rotational values are in degrees (yes) or radians (no).

endheader
time	pelvis_tilt	pelvis_list	pelvis_rotation	pelvis_tx	pelvis_ty	pelvis_tz	hip_flexion_r	hip_adduction_r	hip_rotation_r	knee_angle_r	knee_angle_r_beta	ankle_angle_r	subtalar_angle_r	mtp_angle_r	hip_flexion_l	hip_adduction_l	hip_rotation_l	knee_angle_l	knee_angle_l_beta	ankle_angle_l	subtalar_angle_l	mtp_angle_l	L5_S1_Flex_Ext	L5_S1_Lat_Bending	L5_S1_axial_rotation	L4_L5_Flex_Ext	L4_L5_Lat_Bending	L4_L5_axial_rotation	L3_L4_Flex_Ext	L3_L4_Lat_Bending	L3_L4_axial_rotation	L2_L3_Flex_Ext	L2_L3_Lat_Bending	L2_L3_axial_rotation	L1_L2_Flex_Ext	L1_L2_Lat_Bending	L1_L2_axial_rotation	L1_T12_Flex_Ext	L1_T12_Lat_Bending	L1_T12_axial_rotation	Abs_r3	Abs_r2	Abs_r1	Abs_t1	Abs_t2	neck_flexion	neck_bending	neck_rotation	arm_flex_r	arm_add_r	arm_rot_r	elbow_flex_r	pro_sup_r	wrist_flex_r	wrist_dev_r	arm_flex_l	arm_add_l	arm_rot_l	elbow_flex_l	pro_sup_l	wrist_flex_l	wrist_dev_l
0.000000	0.843082	-3.999507	92.028308	0.224493	1.057467	0.553814	6.533537	-0.003484	-9.284715	9.352766	0.163237	28.277071	18.390864	0.000000	7.341183	-1.710892	-3.230033	7.331509	0.127959	25.888893	6.046117	0.000000	0.025965	0.131128	1.532016	0.048219	0.174400	1.627768	0.042657	0.318825	1.627768	0.029675	0.318825	1.340514	0.024111	0.267396	1.244763	0.014836	0.203117	1.149012	0.185463	1.483348	8.520616	0.000000	0.000000	21.669292	-1.967858	1.021029	15.205763	-6.612095	52.374144	37.262581	81.279766	6.430232	-2.114282	25.537350	-3.611977	91.706809	36.009412	30.630093	-13.426462	-4.479096
0.016667	1.011005	-3.599850	91.054083	0.225591	1.057128	0.551691	5.926574	0.258139	-7.100584	8.879476	0.154976	28.085605	18.469988	0.000000	6.720316	-1.951920	-4.681905	7.510961	0.131091	25.811888	6.579115	0.000000	0.017643	0.151287	1.796115	0.032764	0.201212	1.908373	0.028985	0.367840	1.908373	0.020164	0.367840	1.571601	0.016383	0.308505	1.459344	0.010081	0.234344	1.347087	0.126020	1.711394	9.989455	0.000000	0.000000	21.562092	-1.370889	0.672309	14.994778	-6.896282	54.174989	36.379339	83.250452	5.368704	-3.749944	25.720257	-3.325313	93.206023	35.985628	30.298152	-11.931729	-4.517472
0.033333	1.102711	-3.253272	90.299851	0.226573	1.056889	0.549738	5.375113	0.426853	-5.333768	8.470050	0.147830	27.916149	18.529769	0.000000	6.191296	-2.104671	-5.832657	7.668273	0.133837	25.708911	7.010415	0.000000	0.010486	0.158320	2.012906	0.019474	0.210566	2.138713	0.017228	0.384939	2.138713	0.011985	0.384939	1.761293	0.009738	0.322846	1.635486	0.005992	0.245238	1.509680	0.074902	1.790948	11.195181	0.000000	0.000000	21.410369	-0.845157	0.259587	14.773604	-7.068051	55.451025	35.615638	84.686649	4.653706	-4.951475	25.885325	-3.133885	94.493376	36.021453	29.971498	-10.783736	-4.465394
0.050000	1.126983	-2.955799	89.745264	0.227441	1.056741	0.547948	4.876460	0.512883	-3.946980	8.119011	0.141703	27.768839	18.571959	0.000000	5.746731	-2.178599	-6.706750	7.804786	0.136219	25.584956	7.344767	0.000000	0.004388	0.153860	2.186294	0.008149	0.204634	2.322937	0.007209	0.374096	2.322937	0.005015	0.374096	1.913007	0.004075	0.313752	1.776364	0.002507	0.238329	1.639720	0.031344	1.740497	12.159509	0.000000	0.000000	21.219316	-0.387575	-0.204564	14.544976	-7.140726	56.253991	34.964968	85.648043	4.245935	-5.764662	26.033308	-3.026824	95.580782	36.107133	29.669850	-9.942969	-4.333575
0.066667	1.092609	-2.703457	89.369973	0.228199	1.056674	0.546316	4.427925	0.526454	-2.902934	7.820886	0.136500	27.643810	18.598308	0.000000	5.379225	-2.183155	-7.328646	7.921845	0.138262	25.445016	7.586918	0.000000	-0.000759	0.139542	2.320182	-0.001409	0.185591	2.465194	-0.001246	0.339283	2.465194	-0.000867	0.339283	2.030160	-0.000704	0.284555	1.885148	-0.000433	0.216151	1.740137	-0.005418	1.578532	12.904158	0.000000	0.000000	20.994129	0.004948	-0.707574	14.311631	-7.127629	56.635628	34.420817	86.194318	4.106091	-6.235290	26.164961	-2.993260	96.480154	36.232916	29.412926	-9.369913	-4.132728
0.083333	1.008371	-2.492274	89.153631	0.228848	1.056678	0.544834	4.026814	0.477791	-2.164343	7.570201	0.132125	27.541199	18.610566	0.000000	5.081387	-2.127792	-7.722807	8.020790	0.139989	25.294085	7.741620	0.000000	-0.005061	0.117001	2.418477	-0.009399	0.155612	2.569632	-0.008315	0.284477	2.569632	-0.005784	0.284477	2.116167	-0.004700	0.238589	1.965012	-0.002892	0.181235	1.813858	-0.036151	1.323541	13.450843	0.000000	0.000000	20.740001	0.335498	-1.236872	14.076303	-7.042083	56.647674	33.976675	86.385161	4.194872	-6.409145	26.281037	-3.022324	97.203405	36.389049	29.220442	-9.025054	-3.873567
0.100000	0.883057	-2.318274	89.075889	0.229393	1.056742	0.543497	3.670434	0.377119	-1.693922	7.361481	0.128482	27.461141	18.610483	0.000000	4.845822	-2.021962	-7.913697	8.102967	0.141423	25.137156	7.813619	0.000000	-0.008626	0.087871	2.485082	-0.016020	0.116868	2.640400	-0.014172	0.213649	2.640400	-0.009859	0.213649	2.174447	-0.008010	0.179186	2.019129	-0.004929	0.136112	1.863811	-0.061618	0.994012	13.821280	0.000000	0.000000	20.462127	0.607164	-1.779886	13.841730	-6.897412	56.341869	33.626032	86.280257	4.472978	-6.332013	26.382291	-3.103147	97.762447	36.565778	29.112117	-8.868877	-3.566806
0.116667	0.725450	-2.177486	89.116401	0.229836	1.056858	0.542298	3.356094	0.234662	-1.454383	7.189252	0.125476	27.403771	18.599810	0.000000	4.665138	-1.875117	-7.925776	8.169716	0.142588	24.979223	7.807667	0.000000	-0.011562	0.053786	2.523902	-0.021471	0.071535	2.681646	-0.018995	0.130775	2.681646	-0.013214	0.130775	2.208414	-0.010736	0.109680	2.050671	-0.006606	0.083314	1.892927	-0.082584	0.608436	14.037187	0.000000	0.000000	20.165700	0.823036	-2.324046	13.610647	-6.706939	55.769952	33.362376	85.939291	4.901108	-6.049680	26.469478	-3.224859	98.169195	36.753352	29.107669	-8.861868	-3.223158
0.133333	0.544337	-2.065934	89.254817	0.230180	1.057016	0.541231	3.081101	0.060646	-1.408441	7.048039	0.123011	27.369225	18.580297	0.000000	4.531942	-1.696709	-7.783507	8.222381	0.143508	24.825279	7.728512	0.000000	-0.013974	0.016381	2.538842	-0.025951	0.021786	2.697520	-0.022958	0.039828	2.697520	-0.015971	0.039828	2.221487	-0.012976	0.033403	2.062809	-0.007985	0.025373	1.904132	-0.099815	0.185300	14.120279	0.000000	0.000000	19.855914	0.986200	-2.856779	13.385789	-6.483987	54.983662	33.179196	85.421950	5.439960	-5.607931	26.543350	-3.376589	98.435561	36.942017	29.226814	-8.964511	-2.853337
0.150000	0.348501	-1.979645	89.470790	0.230427	1.057204	0.540289	2.842762	-0.134705	-1.518808	6.932368	0.120993	27.357638	18.553695	0.000000	4.438839	-1.496191	-7.511353	8.262305	0.144204	24.680318	7.580903	0.000000	-0.015971	-0.022711	2.533807	-0.029659	-0.030205	2.692170	-0.026238	-0.055218	2.692170	-0.018253	-0.055218	2.217081	-0.014830	-0.046311	2.058718	-0.009126	-0.035179	1.900355	-0.114076	-0.256906	14.092273	0.000000	0.000000	19.537965	1.099747	-3.365514	13.169894	-6.241878	54.034740	33.069981	84.787919	6.050234	-5.052553	26.604663	-3.547470	98.573458	37.122021	29.489271	-9.137293	-2.468056
0.166667	0.146729	-1.914646	89.743972	0.230582	1.057414	0.539466	2.638385	-0.341164	-1.748199	6.836764	0.119324	27.369146	18.521754	0.000000	4.378437	-1.283014	-7.133775	8.290830	0.144702	24.549334	7.369589	0.000000	-0.017658	-0.061853	2.512700	-0.032793	-0.082264	2.669744	-0.029011	-0.150389	2.669744	-0.020181	-0.150389	2.198613	-0.016397	-0.126131	2.041569	-0.010090	-0.095810	1.884525	-0.126130	-0.699693	13.974886	0.000000	0.000000	19.217045	1.166763	-3.837681	12.965696	-5.993937	52.974924	33.028222	84.096883	6.692629	-4.429331	26.654171	-3.726632	98.594800	37.283610	29.914758	-9.340698	-2.078028
